<svg width="64" height="64" viewBox="0 0 64 64" fill="none" xmlns="http://www.w3.org/2000/svg">
<path d="M34.4537 6.02674L51.8137 15.3867C53.8403 16.4801 53.8403 19.6001 51.8137 20.6934L34.4537 30.0534C32.907 30.8801 31.0937 30.8801 29.547 30.0534L12.187 20.6934C10.1603 19.6001 10.1603 16.4801 12.187 15.3867L29.547 6.02674C31.0937 5.20007 32.907 5.20007 34.4537 6.02674Z" stroke="white" stroke-width="1.5" stroke-linecap="round" stroke-linejoin="round"/>
<path d="M9.62634 27.0134L25.7597 35.0934C27.7597 36.1067 29.0397 38.16 29.0397 40.4V55.6534C29.0397 57.8667 26.7197 59.2801 24.7463 58.2934L8.61301 50.2134C6.61301 49.2 5.33301 47.1467 5.33301 44.9067V29.6534C5.33301 27.4401 7.65301 26.0267 9.62634 27.0134Z" stroke="white" stroke-width="1.5" stroke-linecap="round" stroke-linejoin="round"/>
<path d="M54.3733 27.0134L38.24 35.0934C36.24 36.1067 34.96 38.16 34.96 40.4V55.6534C34.96 57.8667 37.28 59.2801 39.2533 58.2934L55.3866 50.2134C57.3866 49.2 58.6666 47.1467 58.6666 44.9067V29.6534C58.6666 27.4401 56.3466 26.0267 54.3733 27.0134Z" stroke="white" stroke-width="1.5" stroke-linecap="round" stroke-linejoin="round"/>
</svg>
